<svg xmlns="http://www.w3.org/2000/svg" viewBox="0 0 200 200">
  <defs>
    <linearGradient id="doorGradient" x1="0%" y1="0%" x2="100%" y2="100%">
      <stop offset="0%" style="stop-color:#4ade80;stop-opacity:1" />
      <stop offset="100%" style="stop-color:#16a34a;stop-opacity:1" />
    </linearGradient>
    <linearGradient id="gearGradient" x1="0%" y1="0%" x2="100%" y2="100%">
      <stop offset="0%" style="stop-color:#fcd34d;stop-opacity:1" />
      <stop offset="100%" style="stop-color:#d97706;stop-opacity:1" />
    </linearGradient>
  </defs>
  
  <!-- Gear Background -->
  <path fill="url(#gearGradient)" d="M100 20 L120 20 L130 50 A 50 50 0 0 1 150 60 L180 50 L190 70 L160 90 A 50 50 0 0 1 160 110 L190 130 L180 150 L150 140 A 50 50 0 0 1 130 150 L120 180 L100 180 L90 150 A 50 50 0 0 1 70 140 L40 150 L30 130 L60 110 A 50 50 0 0 1 60 90 L30 70 L40 50 L70 60 A 50 50 0 0 1 90 50 Z" />
  
  <!-- Inner Door Circle -->
  <circle cx="100" cy="100" r="65" fill="#1e293b" />
  <circle cx="100" cy="100" r="60" fill="url(#doorGradient)" stroke="#d97706" stroke-width="4" />
  
  <!-- Door Planks -->
  <path d="M100 40 L100 160" stroke="#166534" stroke-width="2" />
  <path d="M75 45 L75 155" stroke="#166534" stroke-width="2" />
  <path d="M125 45 L125 155" stroke="#166534" stroke-width="2" />
  
  <!-- Door Knob -->
  <circle cx="100" cy="100" r="12" fill="#d97706" stroke="#fcd34d" stroke-width="2" />
  
  <!-- Leaves decoration -->
  <path d="M40 40 Q 20 60 30 80 Q 50 70 40 40 Z" fill="#4ade80" />
  <path d="M50 30 Q 70 20 80 40 Q 60 50 50 30 Z" fill="#4ade80" />
</svg>
